<svg width="45" height="50" viewBox="0 0 45 50" fill="none" xmlns="http://www.w3.org/2000/svg">
<path fill-rule="evenodd" clip-rule="evenodd" d="M24.5778 1.92415C35.8231 2.09324 44.8895 11.6546 44.8895 23.4243C44.8895 29.4133 42.542 34.8305 38.7544 38.7294C35.0749 42.5607 30.0132 44.9268 24.4262 44.9268C24.401 44.9268 24.3759 44.9267 24.3508 44.9266C24.3254 44.9267 24.3 44.9268 24.2746 44.9268C18.7112 44.8835 13.6783 42.4948 10.0261 38.6541C6.29551 34.7707 3.96289 29.3073 3.96289 23.3815C3.96289 11.6352 13.0293 2.0929 24.2746 1.92415V1.92188C24.3252 1.92188 24.3757 1.92206 24.4261 1.92244C24.4766 1.92206 24.5272 1.92188 24.5778 1.92188V1.92415ZM24.2746 11.5458C18.1329 11.7131 13.204 16.9478 13.204 23.3815C13.204 26.6508 14.4231 29.723 16.4811 31.866C18.4816 33.969 21.2323 35.2832 24.2746 35.3255V35.2877C30.5565 35.2877 35.6483 29.9766 35.6483 23.4243C35.6483 16.872 30.5565 11.5609 24.2746 11.5609V11.5458Z" fill="#003F74"/>
<path fill-rule="evenodd" clip-rule="evenodd" d="M35.6481 23.4243C35.6481 28.8426 32.1662 33.4122 27.4088 34.8316L31.946 43.7563C40.8056 38.588 45.12 31.8106 44.8893 23.4243C44.5432 10.8448 35.6595 1.92188 24.2744 1.92188V11.5609C30.5563 11.5609 35.6481 16.872 35.6481 23.4243Z" fill="white"/>
<path fill-rule="evenodd" clip-rule="evenodd" d="M9.76529 21.7477C9.98248 15.2124 15.2473 10.1019 21.5253 10.3322L21.8448 0.718264C10.4667 0.300753 0.923391 9.56442 0.529764 21.4088C0.33295 27.331 2.4608 32.7773 6.06013 36.7952L12.8163 30.237C10.8308 28.0198 9.65671 25.015 9.76529 21.7477Z" fill="#2895F0"/>
<path fill-rule="evenodd" clip-rule="evenodd" d="M22.2805 48.9965C27.8903 49.4087 33.1283 47.3906 37.0619 43.7946C34.1028 40.2148 33.6155 39.6253 31.0733 36.5499C28.9027 38.5336 26.0128 39.6471 22.9178 39.4196C19.8229 39.1922 17.1086 37.667 15.2218 35.3852L8.3319 41.6836C11.751 45.8198 16.6707 48.5843 22.2805 48.9965Z" fill="#B1DCFF"/>
</svg>
