<svg width="160" height="40" viewBox="0 0 160 40" fill="none" xmlns="http://www.w3.org/2000/svg">
<path fill-rule="evenodd" clip-rule="evenodd" d="M0 9.06077C10.8969 9.06077 27.0242 8.61878 40.3183 0L42.4977 2.87293C36.4605 6.91773 29.5168 9.34024 22.2996 10.7557C22.6012 11.3885 23.8221 13.9002 24.8708 15.3391C26.3238 14.4404 28.0309 13.9227 29.8574 13.9227C35.1534 13.9227 39.4466 18.2761 39.4466 23.6464C39.4466 29.0167 35.1534 33.3702 29.8574 33.3702C24.5614 33.3702 20.2681 29.0167 20.2681 23.6464C20.2681 21.5289 20.9356 19.5695 22.0689 17.9727C21.2285 17.0746 20.3809 16.0412 20.2681 15.4696C19.8499 17.4489 18.2888 19.6544 17.1229 21.0236C17.5207 21.1542 17.9072 21.3105 18.2803 21.4905C18.1545 22.1898 18.0888 22.9103 18.0888 23.6464C18.0888 27.7385 20.12 31.3496 23.2158 33.4995C21.9044 37.2856 18.3478 40 14.1659 40C8.86992 40 4.57668 35.6465 4.57668 30.2762C4.57668 25.2413 8.35042 21.1002 13.1862 20.6026C16.8968 16.9858 18.0407 13.4344 18.1813 11.4546C12.1057 12.3343 5.92349 12.5967 0 12.5967V9.06077ZM32.4953 18.4272C31.6986 17.8971 30.8955 17.6796 30.5112 17.6796V16.3536C31.2165 16.3536 32.2659 16.6886 33.2127 17.3186C34.176 17.9596 35.1203 18.9637 35.5007 20.378L34.2392 20.7269C33.9657 19.7103 33.2755 18.9464 32.4953 18.4272ZM9.97835 25.8816C10.0308 25.7485 10.186 25.5288 10.4865 25.2729C10.776 25.0263 11.1586 24.7819 11.5983 24.5838C12.4892 24.1822 13.5215 24.01 14.4139 24.2814L14.7897 23.0114C13.5027 22.6199 12.1377 22.8896 11.0672 23.3721C10.5261 23.6159 10.037 23.924 9.64545 24.2576C9.2649 24.5817 8.92969 24.9697 8.76425 25.3891L9.97835 25.8816Z" fill="#2895F0"/>
<path d="M65.6524 29.7157C63.0535 29.7157 60.9041 28.8576 59.2042 27.1413C57.5043 25.4251 56.6543 23.3247 56.6543 20.8402C56.6543 18.3558 57.5043 16.2554 59.2042 14.5391C60.9041 12.8229 63.0535 11.9648 65.6524 11.9648C67.2379 11.9648 68.6926 12.3489 70.0166 13.1171C71.3405 13.869 72.3621 14.8906 73.0813 16.1818L71.5612 17.0645C71.0218 16.0184 70.2209 15.1848 69.1584 14.5637C68.096 13.9425 66.9273 13.632 65.6524 13.632C63.5111 13.632 61.7622 14.3267 60.4055 15.716C59.0489 17.1053 58.3706 18.8134 58.3706 20.8402C58.3706 22.8671 59.0489 24.5751 60.4055 25.9645C61.7622 27.3538 63.5111 28.0485 65.6524 28.0485C66.9273 28.0485 68.096 27.738 69.1584 27.1168C70.2209 26.4957 71.0218 25.6621 71.5612 24.616L73.0813 25.4741C72.3785 26.7654 71.3569 27.7952 70.0166 28.5634C68.6926 29.3316 67.2379 29.7157 65.6524 29.7157Z" fill="#111111"/>
<path d="M86.0815 17.1626H87.6997V29.4215H86.0815V27.0188C84.9537 28.8167 83.3028 29.7157 81.1289 29.7157C79.38 29.7157 77.8844 29.0946 76.6421 27.8524C75.4162 26.6101 74.8033 25.09 74.8033 23.292C74.8033 21.4941 75.4162 19.9739 76.6421 18.7317C77.8844 17.4895 79.38 16.8683 81.1289 16.8683C83.3028 16.8683 84.9537 17.7673 86.0815 19.5653V17.1626ZM77.819 26.7491C78.7507 27.6807 79.8949 28.1466 81.2515 28.1466C82.6082 28.1466 83.7523 27.6807 84.684 26.7491C85.6157 25.801 86.0815 24.6487 86.0815 23.292C86.0815 21.9354 85.6157 20.7912 84.684 19.8595C83.7523 18.9115 82.6082 18.4375 81.2515 18.4375C79.8949 18.4375 78.7507 18.9115 77.819 19.8595C76.8873 20.7912 76.4215 21.9354 76.4215 23.292C76.4215 24.6487 76.8873 25.801 77.819 26.7491Z" fill="#111111"/>
<path d="M97.6967 16.8683C99.4457 16.8683 100.933 17.4895 102.159 18.7317C103.401 19.9739 104.022 21.4941 104.022 23.292C104.022 25.09 103.401 26.6101 102.159 27.8524C100.933 29.0946 99.4457 29.7157 97.6967 29.7157C95.5228 29.7157 93.8719 28.8167 92.7441 27.0188V34.3251H91.1259V17.1626H92.7441V19.5653C93.8719 17.7673 95.5228 16.8683 97.6967 16.8683ZM94.1416 26.7491C95.0733 27.6807 96.2175 28.1466 97.5741 28.1466C98.9308 28.1466 100.075 27.6807 101.007 26.7491C101.938 25.801 102.404 24.6487 102.404 23.292C102.404 21.9354 101.938 20.7912 101.007 19.8595C100.075 18.9115 98.9308 18.4375 97.5741 18.4375C96.2175 18.4375 95.0733 18.9115 94.1416 19.8595C93.2099 20.7912 92.7441 21.9354 92.7441 23.292C92.7441 24.6487 93.2099 25.801 94.1416 26.7491Z" fill="#111111"/>
<path d="M108.356 14.2204C108.127 14.4492 107.849 14.5637 107.522 14.5637C107.195 14.5637 106.917 14.4492 106.688 14.2204C106.46 13.9916 106.345 13.7137 106.345 13.3868C106.345 13.0599 106.46 12.782 106.688 12.5532C106.917 12.3244 107.195 12.2099 107.522 12.2099C107.849 12.2099 108.127 12.3244 108.356 12.5532C108.585 12.782 108.699 13.0599 108.699 13.3868C108.699 13.7137 108.585 13.9916 108.356 14.2204ZM106.713 29.4215V17.1626H108.331V29.4215H106.713Z" fill="#111111"/>
<path d="M118.262 18.7317H114.732V26.1606C114.732 26.8308 114.862 27.313 115.124 27.6072C115.385 27.8851 115.778 28.0322 116.301 28.0485C116.824 28.0485 117.478 28.0322 118.262 27.9995V29.4215C116.546 29.683 115.255 29.5605 114.388 29.0537C113.538 28.547 113.113 27.5827 113.113 26.1606V18.7317H110.539V17.1626H113.113V14.2204L114.732 13.73V17.1626H118.262V18.7317Z" fill="#111111"/>
<path d="M130.76 17.1626H132.378V29.4215H130.76V27.0188C129.632 28.8167 127.981 29.7157 125.807 29.7157C124.058 29.7157 122.563 29.0946 121.32 27.8524C120.094 26.6101 119.481 25.09 119.481 23.292C119.481 21.4941 120.094 19.9739 121.32 18.7317C122.563 17.4895 124.058 16.8683 125.807 16.8683C127.981 16.8683 129.632 17.7673 130.76 19.5653V17.1626ZM122.497 26.7491C123.429 27.6807 124.573 28.1466 125.93 28.1466C127.286 28.1466 128.43 27.6807 129.362 26.7491C130.294 25.801 130.76 24.6487 130.76 23.292C130.76 21.9354 130.294 20.7912 129.362 19.8595C128.43 18.9115 127.286 18.4375 125.93 18.4375C124.573 18.4375 123.429 18.9115 122.497 19.8595C121.565 20.7912 121.1 21.9354 121.1 23.292C121.1 24.6487 121.565 25.801 122.497 26.7491Z" fill="#111111"/>
<path d="M135.804 29.4215V11.5234H137.422V29.4215H135.804Z" fill="#111111"/>
<path d="M157.234 20.5215C158.738 21.3878 159.49 22.6954 159.49 24.4444C159.49 25.8991 158.975 27.0923 157.945 28.024C156.915 28.9557 155.649 29.4215 154.145 29.4215H146.863V12.259H153.63C155.101 12.259 156.335 12.7166 157.332 13.632C158.346 14.531 158.852 15.6833 158.852 17.089C158.852 18.511 158.313 19.6552 157.234 20.5215ZM153.63 15.4218H150.246V19.1975H153.63C154.153 19.1975 154.586 19.0177 154.929 18.6582C155.289 18.2986 155.469 17.8491 155.469 17.3097C155.469 16.7703 155.297 16.3208 154.954 15.9612C154.611 15.6016 154.169 15.4218 153.63 15.4218ZM154.145 26.2587C154.717 26.2587 155.191 26.0707 155.567 25.6948C155.943 25.3025 156.131 24.8121 156.131 24.2237C156.131 23.6516 155.943 23.1776 155.567 22.8017C155.191 22.4094 154.717 22.2132 154.145 22.2132H150.246V26.2587H154.145Z" fill="#111111"/>
</svg>
