<svg width="59" height="50" viewBox="0 0 59 50" fill="none" xmlns="http://www.w3.org/2000/svg">
<path d="M27.0279 50C13.3284 50 2.22274 38.8922 2.22275 25.1901C2.22275 11.488 13.3284 0.380246 27.0279 0.380247C40.7274 0.380248 51.833 11.488 51.833 25.1901C51.833 38.8923 40.7274 50 27.0279 50Z" fill="#2895F0"/>
<path d="M24.2275 4.75348L11.1722 4.75348" stroke="white"/>
<path d="M20.834 8.52789L7.77865 8.52789" stroke="white"/>
<path d="M13.1689 11.4717L0.113612 11.4717" stroke="white"/>
<path d="M13.1924 15.9105L0.137049 15.9105" stroke="white"/>
<path d="M13.2168 20.3492L0.161463 20.3492" stroke="white"/>
<path d="M13.2412 24.7879L0.185881 24.7879" stroke="white"/>
<path d="M34.1949 49.6198C20.4954 49.6198 9.38973 38.512 9.38973 24.8099C9.38974 11.1078 20.4954 -3.36618e-06 34.1949 -2.16853e-06C47.8944 -9.70885e-07 59 11.1078 59 24.8099C59 38.512 47.8944 49.6198 34.1949 49.6198Z" fill="white"/>
<path fill-rule="evenodd" clip-rule="evenodd" d="M40.5483 28.865C40.5483 30.1336 40.083 31.1528 39.1526 31.9227C38.2221 32.6927 36.9195 33.1534 35.2446 33.305L35.2446 35.7584L33.5819 35.7584L33.5819 33.3529C31.6077 33.313 29.8763 32.9699 28.3876 32.3237L28.3876 29.1642C29.0915 29.5073 29.939 29.8104 30.9301 30.0737C31.9213 30.337 32.8052 30.4926 33.5819 30.5405L33.5819 26.8305L32.7688 26.5193C31.1668 25.897 30.032 25.2208 29.3645 24.4908C28.697 23.7607 28.3633 22.8572 28.3633 21.7801C28.3633 20.6232 28.8224 19.6718 29.7408 18.9258C30.6591 18.1798 31.9395 17.727 33.5819 17.5675L33.5819 15.7364L35.2446 15.7364L35.2446 17.5196C37.0975 17.5994 38.7723 17.9664 40.2691 18.6206L39.1283 21.4211C37.8661 20.9104 36.5716 20.5993 35.2446 20.4876L35.2446 24.0181C36.8224 24.6164 37.945 25.135 38.6125 25.5739C39.28 26.0127 39.7695 26.4954 40.081 27.022C40.3925 27.5485 40.5483 28.1629 40.5483 28.865ZM36.8952 29.0445C36.8952 28.7094 36.7576 28.4262 36.4826 28.1948C36.2075 27.9634 35.7948 27.7241 35.2446 27.4767L35.2446 30.4567C36.345 30.2732 36.8952 29.8025 36.8952 29.0445ZM32.0163 21.7801C32.0163 22.1311 32.1397 22.4204 32.3865 22.6478C32.6333 22.8751 33.0318 23.1085 33.5819 23.3479L33.5819 20.5355C32.5382 20.687 32.0163 21.1019 32.0163 21.7801Z" fill="#003F74"/>
<path d="M34.4559 44.4636C24.3616 44.4636 16.1785 36.084 16.1785 25.7474C16.1785 15.4107 24.3616 7.03113 34.4559 7.03113C44.5503 7.03113 52.7334 15.4107 52.7334 25.7474C52.7334 36.084 44.5503 44.4636 34.4559 44.4636Z" stroke="#19243D"/>
</svg>
