<svg width="52" height="49" viewBox="0 0 52 49" fill="none" xmlns="http://www.w3.org/2000/svg">
<path fill-rule="evenodd" clip-rule="evenodd" d="M0 11.0867C13.3333 11.0867 33.0667 10.5459 49.3333 0L52 3.5153C44.6129 8.46451 36.1166 11.4287 27.2856 13.1606C27.6547 13.9349 29.1486 17.0082 30.4318 18.7689C32.2096 17.6693 34.2985 17.0357 36.5333 17.0357C43.0135 17.0357 48.2667 22.3626 48.2667 28.9336C48.2667 35.5047 43.0135 40.8316 36.5333 40.8316C30.0532 40.8316 24.8 35.5047 24.8 28.9336C24.8 26.3427 25.6167 23.9451 27.0034 21.9913C25.9751 20.8924 24.9379 19.6279 24.8 18.9285C24.2882 21.3504 22.3781 24.049 20.9515 25.7244C21.4383 25.8842 21.9111 26.0754 22.3677 26.2957C22.2138 27.1513 22.1333 28.0329 22.1333 28.9336C22.1333 33.9407 24.6187 38.3592 28.4067 40.9898C26.8021 45.6224 22.4502 48.9438 17.3333 48.9438C10.8532 48.9438 5.6 43.6169 5.6 37.0459C5.6 30.8852 10.2175 25.8181 16.1346 25.2093C20.6748 20.7837 22.0745 16.4383 22.2466 14.0158C14.8125 15.0922 7.24795 15.4132 0 15.4132V11.0867ZM39.7611 22.5474C38.7863 21.8988 37.8036 21.6326 37.3333 21.6326V20.0102C38.1964 20.0102 39.4804 20.42 40.6389 21.191C41.8176 21.9753 42.973 23.2039 43.4385 24.9345L41.8949 25.3614C41.5603 24.1175 40.7158 23.1828 39.7611 22.5474ZM12.2095 31.6686C12.2737 31.5058 12.4635 31.2369 12.8312 30.9237C13.1854 30.622 13.6537 30.323 14.1916 30.0806C15.2817 29.5892 16.5448 29.3785 17.6368 29.7107L18.0966 28.1566C16.5218 27.6776 14.8516 28.0076 13.5418 28.598C12.8797 28.8963 12.2813 29.2733 11.8021 29.6814C11.3365 30.078 10.9263 30.5528 10.7239 31.066L12.2095 31.6686Z" fill="#2895F0"/>
</svg>
