<svg width="57" height="50" viewBox="0 0 57 50" fill="none" xmlns="http://www.w3.org/2000/svg">
<path d="M24.995 50C11.1906 50 -0.000178869 38.8071 -0.000177662 25C-0.000176455 11.1929 11.1906 -3.39198e-06 24.995 -2.18515e-06C38.7995 -9.78325e-07 49.9902 11.1929 49.9902 25C49.9902 38.8071 38.7995 50 24.995 50Z" fill="#2895F0"/>
<path d="M27.4902 30V8.125H35.6152V21.875H51.8652V30H27.4902Z" fill="#003F74"/>
<path d="M31.2403 0C45.0474 0 56.2402 11.1929 56.2402 24.9999C56.2402 38.807 45.0474 49.9999 31.2403 49.9999C17.4332 49.9999 6.24035 38.807 6.24035 24.9999C6.25499 11.199 17.4393 0.0147531 31.2403 0ZM29.4545 24.9999C29.4545 25.9862 30.254 26.7857 31.2403 26.7857H45.526C46.5122 26.7857 47.3117 25.9862 47.3117 24.9999C47.3117 24.0137 46.5122 23.2142 45.526 23.2142H33.0259V10.7143C33.0259 9.72802 32.2264 8.92853 31.2402 8.92853C30.2539 8.92853 29.4545 9.72802 29.4545 10.7143V24.9999Z" fill="white"/>
</svg>
