<svg width="201" height="40" viewBox="0 0 201 40" fill="none" xmlns="http://www.w3.org/2000/svg">
<path fill-rule="evenodd" clip-rule="evenodd" d="M0 9.06077C10.8969 9.06077 27.0242 8.61878 40.3183 0L42.4977 2.87293C36.4605 6.91773 29.5168 9.34024 22.2996 10.7557C22.6012 11.3885 23.8221 13.9002 24.8708 15.3391C26.3238 14.4404 28.0309 13.9227 29.8574 13.9227C35.1534 13.9227 39.4466 18.2761 39.4466 23.6464C39.4466 29.0167 35.1534 33.3702 29.8574 33.3702C24.5614 33.3702 20.2681 29.0167 20.2681 23.6464C20.2681 21.5289 20.9356 19.5695 22.0689 17.9727C21.2285 17.0746 20.3809 16.0412 20.2681 15.4696C19.8499 17.4489 18.2888 19.6544 17.1229 21.0236C17.5207 21.1542 17.9072 21.3105 18.2803 21.4905C18.1545 22.1898 18.0888 22.9103 18.0888 23.6464C18.0888 27.7385 20.12 31.3496 23.2158 33.4995C21.9044 37.2856 18.3478 40 14.1659 40C8.86992 40 4.57668 35.6465 4.57668 30.2762C4.57668 25.2413 8.35042 21.1002 13.1862 20.6026C16.8968 16.9858 18.0407 13.4344 18.1813 11.4546C12.1057 12.3343 5.92349 12.5967 0 12.5967V9.06077ZM32.4953 18.4272C31.6986 17.8971 30.8955 17.6796 30.5112 17.6796V16.3536C31.2165 16.3536 32.2659 16.6886 33.2127 17.3186C34.176 17.9596 35.1203 18.9637 35.5007 20.378L34.2392 20.7269C33.9657 19.7103 33.2755 18.9464 32.4953 18.4272ZM9.97835 25.8816C10.0308 25.7485 10.186 25.5288 10.4865 25.2729C10.776 25.0263 11.1586 24.7819 11.5983 24.5838C12.4892 24.1822 13.5215 24.01 14.4139 24.2814L14.7897 23.0114C13.5027 22.6199 12.1377 22.8896 11.0672 23.3721C10.5261 23.6159 10.037 23.924 9.64545 24.2576C9.2649 24.5817 8.92969 24.9697 8.76425 25.3891L9.97835 25.8816Z" fill="#2895F0"/>
<path d="M61.6872 30C59.9755 30 58.417 29.5946 57.0116 28.7838C55.6242 27.955 54.5251 26.8018 53.7143 25.3243C52.9035 23.8468 52.498 22.1622 52.498 20.2703C52.498 18.3784 52.9035 16.6937 53.7143 15.2162C54.5251 13.7387 55.6242 12.5946 57.0116 11.7838C58.417 10.955 59.9755 10.5405 61.6872 10.5405C63.1647 10.5405 64.489 10.8108 65.6602 11.3514C66.8494 11.8919 67.8044 12.6396 68.5251 13.5946C69.2458 14.5315 69.6872 15.5856 69.8494 16.7568H68.0926C67.6962 15.3333 66.9395 14.2252 65.8224 13.4324C64.7053 12.6216 63.3359 12.2162 61.7143 12.2162C60.2368 12.2162 58.9395 12.5676 57.8224 13.2703C56.7053 13.955 55.8404 14.9099 55.2278 16.1351C54.6332 17.3423 54.3359 18.7207 54.3359 20.2703C54.3359 21.8198 54.6332 23.2072 55.2278 24.4324C55.8404 25.6396 56.7053 26.5946 57.8224 27.2973C58.9395 27.982 60.2368 28.3243 61.7143 28.3243C63.3359 28.3243 64.7053 27.9279 65.8224 27.1351C66.9395 26.3243 67.6962 25.2072 68.0926 23.7838H69.8494C69.6872 24.955 69.2458 26.018 68.5251 26.973C67.8044 27.9099 66.8494 28.6486 65.6602 29.1892C64.489 29.7297 63.1647 30 61.6872 30Z" fill="white"/>
<path d="M72.9896 16.2162H74.6653V18.2432C75.0437 17.6126 75.5752 17.0721 76.2599 16.6216C76.9626 16.1712 77.7103 15.9459 78.5031 15.9459C79.0256 15.9459 79.413 16.018 79.6653 16.1622L79.368 17.5946C79.1518 17.5405 78.8364 17.5135 78.422 17.5135C77.6833 17.5135 76.9626 17.7928 76.2599 18.3514C75.5572 18.8919 75.0256 19.5946 74.6653 20.4595V29.7297H72.9896V16.2162Z" fill="white"/>
<path d="M86.4184 30C85.0491 30 83.977 29.6216 83.2022 28.8649C82.4275 28.0901 82.0401 26.991 82.0401 25.5676V16.2162H83.7157V25.4865C83.7157 26.3874 83.986 27.1081 84.5266 27.6486C85.0671 28.1712 85.8238 28.4324 86.7968 28.4324C87.6617 28.4324 88.4905 28.1351 89.2833 27.5405C90.0941 26.9459 90.7428 26.1712 91.2293 25.2162V16.2162H92.9049V29.7297H91.2293V27.4595C90.7968 28.1261 90.1392 28.7207 89.2563 29.2432C88.3734 29.7477 87.4275 30 86.4184 30Z" fill="white"/>
<path d="M96.4799 16.2162H98.1556V18.4865C98.588 17.8198 99.2457 17.2342 100.129 16.7297C101.011 16.2072 101.957 15.9459 102.966 15.9459C104.336 15.9459 105.408 16.3243 106.183 17.0811C106.957 17.8198 107.345 18.8649 107.345 20.2162V29.7297H105.669V20.4595C105.669 19.5586 105.399 18.8468 104.858 18.3243C104.318 17.7838 103.561 17.5135 102.588 17.5135C101.759 17.5135 100.948 17.8108 100.156 18.4054C99.3628 18.982 98.6961 19.7568 98.1556 20.7297V29.7297H96.4799V16.2162Z" fill="white"/>
<path d="M116.731 30C115.451 30 114.307 29.7117 113.298 29.1351C112.307 28.5405 111.523 27.7117 110.947 26.6486C110.388 25.5856 110.109 24.3604 110.109 22.973C110.109 21.5856 110.388 20.3604 110.947 19.2973C111.523 18.2342 112.307 17.4144 113.298 16.8378C114.307 16.2432 115.451 15.9459 116.731 15.9459C118.496 15.9459 119.902 16.3784 120.947 17.2432C122.01 18.0901 122.667 19.3063 122.92 20.8919H121.325C121.073 19.8108 120.559 18.982 119.785 18.4054C119.028 17.8108 118.028 17.5135 116.785 17.5135C115.83 17.5135 114.974 17.7477 114.217 18.2162C113.46 18.6667 112.866 19.3063 112.433 20.1351C112.001 20.964 111.785 21.9099 111.785 22.973C111.785 24.036 112.001 24.982 112.433 25.8108C112.866 26.6396 113.46 27.2883 114.217 27.7568C114.974 28.2072 115.83 28.4324 116.785 28.4324C118.082 28.4324 119.082 28.1532 119.785 27.5946C120.505 27.018 121.019 26.1712 121.325 25.0541H122.92C122.74 26.5315 122.091 27.7297 120.974 28.6486C119.857 29.5495 118.442 30 116.731 30Z" fill="white"/>
<path d="M125.777 10H127.452V18.4324C128.011 17.7297 128.723 17.1441 129.588 16.6757C130.47 16.1892 131.47 15.9459 132.588 15.9459C133.939 15.9459 135.002 16.3604 135.777 17.1892C136.57 18 136.966 19.0721 136.966 20.4054V29.7297H135.29V20.2973C135.29 19.4144 135.002 18.7297 134.425 18.2432C133.849 17.7568 133.083 17.5135 132.128 17.5135C131.245 17.5135 130.38 17.7838 129.534 18.3243C128.705 18.8649 128.011 19.5586 127.452 20.4054V29.7297H125.777V10Z" fill="white"/>
<path d="M147.047 30C145.768 30 144.587 29.7477 143.506 29.2432C142.425 28.7387 141.551 28.027 140.885 27.1081C140.218 26.1892 139.84 25.1261 139.75 23.9189L139.858 23.7838L143.02 23.4865C143.128 24.6216 143.56 25.5045 144.317 26.1351C145.092 26.7658 146.038 27.0811 147.155 27.0811C148.2 27.0811 149.056 26.8198 149.722 26.2973C150.389 25.7568 150.722 25 150.722 24.027C150.722 23.018 150.362 22.2613 149.641 21.7568C148.921 21.2523 147.741 20.8198 146.101 20.4595C144.299 20.045 142.903 19.4504 141.912 18.6757C140.939 17.8829 140.452 16.7838 140.452 15.3784C140.452 14.4054 140.722 13.5586 141.263 12.8378C141.804 12.0991 142.542 11.5315 143.479 11.1351C144.416 10.7387 145.47 10.5405 146.641 10.5405C148.569 10.5405 150.101 11.018 151.236 11.973C152.389 12.9279 153.056 14.2162 153.236 15.8378L153.101 16L150.128 16.1622C150.002 15.2072 149.641 14.4865 149.047 14C148.452 13.4955 147.641 13.2432 146.614 13.2432C145.75 13.2432 145.047 13.4234 144.506 13.7838C143.966 14.1441 143.695 14.6126 143.695 15.1892C143.695 15.9279 144.038 16.4865 144.722 16.8649C145.425 17.2432 146.596 17.6306 148.236 18.027C150.074 18.4595 151.506 19.1261 152.533 20.027C153.56 20.9279 154.074 22.1982 154.074 23.8378C154.074 25.0811 153.768 26.1712 153.155 27.1081C152.542 28.027 151.695 28.7387 150.614 29.2432C149.551 29.7477 148.362 30 147.047 30Z" fill="white"/>
<path d="M161.738 30C160.585 30 159.675 29.6847 159.009 29.0541C158.342 28.4054 158.009 27.4685 158.009 26.2432V18.8649H155.495V16.2162H158.009V12.2432H158.252L161.117 13.2432V16.2162H164.144V18.8649H161.117V25.973C161.117 26.4234 161.243 26.7748 161.495 27.027C161.765 27.2613 162.153 27.3784 162.657 27.3784C163.072 27.3784 163.495 27.3243 163.928 27.2162L164.009 27.2703V29.7297C163.27 29.9099 162.513 30 161.738 30Z" fill="white"/>
<path d="M170.519 30C169.294 30 168.267 29.6396 167.438 28.9189C166.627 28.1802 166.222 27.1982 166.222 25.973C166.222 24.7297 166.645 23.7477 167.492 23.027C168.357 22.2883 169.492 21.8468 170.897 21.7027L174.816 21.2973V20.5676C174.816 19.8649 174.582 19.3333 174.114 18.973C173.645 18.5946 173.014 18.4054 172.222 18.4054C171.519 18.4054 170.942 18.5766 170.492 18.9189C170.059 19.2613 169.78 19.7658 169.654 20.4324L166.978 20.2973L166.843 20.1892C167.096 18.8198 167.726 17.7748 168.735 17.0541C169.744 16.3153 170.942 15.9459 172.33 15.9459C173.969 15.9459 175.294 16.3604 176.303 17.1892C177.312 18 177.816 19.1171 177.816 20.5405V26.0811C177.816 26.982 178.177 27.4324 178.897 27.4324C179.059 27.4324 179.258 27.4054 179.492 27.3514L179.573 27.4054V29.6216C179.014 29.8018 178.447 29.8919 177.87 29.8919C177.222 29.8919 176.636 29.7387 176.114 29.4324C175.609 29.1261 175.24 28.6216 175.005 27.9189H174.924C174.348 28.5495 173.681 29.0541 172.924 29.4324C172.186 29.8108 171.384 30 170.519 30ZM171.087 27.4865C171.807 27.4865 172.465 27.3153 173.059 26.973C173.654 26.6126 174.24 26.0991 174.816 25.4324V23.4595L171.303 23.8649C170.6 23.955 170.068 24.1802 169.708 24.5405C169.348 24.8829 169.168 25.3063 169.168 25.8108C169.168 26.3514 169.348 26.7658 169.708 27.0541C170.068 27.3423 170.528 27.4865 171.087 27.4865Z" fill="white"/>
<path d="M182.047 16.2162H185.128V17.8919C186.263 16.5946 187.56 15.9459 189.02 15.9459C189.506 15.9459 189.893 16.018 190.182 16.1622L189.776 18.6486L189.668 18.7297C189.452 18.6757 189.155 18.6486 188.776 18.6486C188.02 18.6486 187.326 18.8649 186.695 19.2973C186.065 19.7297 185.542 20.3514 185.128 21.1622V29.7297H182.047V16.2162Z" fill="white"/>
<path d="M197.792 30C196.639 30 195.729 29.6847 195.062 29.0541C194.396 28.4054 194.062 27.4685 194.062 26.2432V18.8649H191.549V16.2162H194.062V12.2432H194.305L197.17 13.2432V16.2162H200.197V18.8649H197.17V25.973C197.17 26.4234 197.296 26.7748 197.549 27.027C197.819 27.2613 198.206 27.3784 198.711 27.3784C199.125 27.3784 199.549 27.3243 199.981 27.2162L200.062 27.2703V29.7297C199.323 29.9099 198.567 30 197.792 30Z" fill="white"/>
</svg>
