<svg width="148" height="30" viewBox="0 0 148 30" fill="none" xmlns="http://www.w3.org/2000/svg">
<path fill-rule="evenodd" clip-rule="evenodd" d="M0 6.79558C8.17264 6.79558 20.2681 6.46409 30.2388 0L31.8733 2.1547C27.3454 5.1883 22.1376 7.00518 16.7247 8.06677C16.9509 8.54134 17.8666 10.4251 18.6531 11.5044C19.7428 10.8303 21.0232 10.442 22.393 10.442C26.365 10.442 29.5849 13.7071 29.5849 17.7348C29.5849 21.7625 26.365 25.0276 22.393 25.0276C18.421 25.0276 15.2011 21.7625 15.2011 17.7348C15.2011 16.1467 15.7017 14.6771 16.5517 13.4795C15.9214 12.806 15.2857 12.0309 15.2011 11.6022C14.8874 13.0867 13.7166 14.7408 12.8422 15.7677C13.1405 15.8657 13.4304 15.9829 13.7102 16.1179C13.6159 16.6423 13.5666 17.1827 13.5666 17.7348C13.5666 20.8039 15.09 23.5122 17.4118 25.1246C16.4283 27.9642 13.7608 30 10.6244 30C6.65244 30 3.43251 26.7349 3.43251 22.7072C3.43251 18.931 6.26281 15.8252 9.88965 15.452C12.6726 12.7393 13.5305 10.0758 13.636 8.59098C9.07927 9.25075 4.44262 9.44751 0 9.44751V6.79558ZM24.3715 13.8204C23.774 13.4228 23.1716 13.2597 22.8834 13.2597V12.2652C23.4124 12.2652 24.1994 12.5164 24.9095 12.989C25.632 13.4697 26.3402 14.2228 26.6255 15.2835L25.6794 15.5452C25.4743 14.7828 24.9567 14.2098 24.3715 13.8204ZM7.48376 19.4112C7.52313 19.3114 7.63949 19.1466 7.86487 18.9546C8.08198 18.7697 8.36898 18.5864 8.6987 18.4378C9.36691 18.1367 10.1411 18.0075 10.8104 18.2111L11.0922 17.2585C10.127 16.9649 9.10326 17.1672 8.3004 17.5291C7.89458 17.7119 7.52777 17.943 7.23408 18.1932C6.94868 18.4363 6.69727 18.7273 6.57319 19.0419L7.48376 19.4112Z" fill="#2895F0"/>
<path d="M49.833 21.2C48.5664 21.2 47.3997 20.9 46.333 20.3C45.2797 19.6867 44.4397 18.8333 43.813 17.74C43.1864 16.6467 42.873 15.4 42.873 14C42.873 12.6 43.1864 11.3533 43.813 10.26C44.4397 9.16667 45.2797 8.32 46.333 7.72C47.3997 7.10667 48.5664 6.8 49.833 6.8C50.8997 6.8 51.8664 6.99333 52.733 7.38C53.5997 7.76667 54.3064 8.30667 54.853 9C55.413 9.69333 55.7797 10.4933 55.953 11.4H54.033C53.7397 10.4667 53.2397 9.76 52.533 9.28C51.8264 8.8 50.9197 8.56 49.813 8.56C48.813 8.56 47.933 8.79333 47.173 9.26C46.4264 9.72667 45.8464 10.3733 45.433 11.2C45.033 12.0267 44.833 12.96 44.833 14C44.833 15.04 45.033 15.9733 45.433 16.8C45.8464 17.6267 46.4264 18.2733 47.173 18.74C47.933 19.2067 48.813 19.44 49.813 19.44C51.1464 19.44 52.193 19.0733 52.953 18.34C53.713 17.5933 54.1464 16.56 54.253 15.24H48.673V13.48H56.193V14.62C56.193 15.8867 55.933 17.02 55.413 18.02C54.893 19.0067 54.153 19.7867 53.193 20.36C52.233 20.92 51.113 21.2 49.833 21.2ZM62.8655 21.2C61.8655 21.2 60.9989 20.9867 60.2655 20.56C59.5322 20.12 58.9655 19.5133 58.5655 18.74C58.1789 17.9533 57.9855 17.04 57.9855 16C57.9855 14.9867 58.2055 14.0867 58.6455 13.3C59.0855 12.5133 59.6789 11.9 60.4255 11.46C61.1722 11.02 61.9855 10.8 62.8655 10.8C63.7589 10.8 64.5589 11.0067 65.2655 11.42C65.9855 11.82 66.5455 12.4 66.9455 13.16C67.3589 13.92 67.5655 14.8267 67.5655 15.88V16.56H59.7655C59.7922 17.5067 60.0855 18.2533 60.6455 18.8C61.2189 19.3333 61.9655 19.6 62.8855 19.6C63.6455 19.6 64.2789 19.42 64.7855 19.06C65.2922 18.6867 65.6389 18.1933 65.8255 17.58H67.4655C67.1855 18.7133 66.6522 19.6 65.8655 20.24C65.0789 20.88 64.0789 21.2 62.8655 21.2ZM65.9055 15.04C65.8389 14.2 65.5189 13.5533 64.9455 13.1C64.3855 12.6333 63.6922 12.4 62.8655 12.4C62.0655 12.4 61.3855 12.6333 60.8255 13.1C60.2655 13.5667 59.9189 14.2133 59.7855 15.04H65.9055ZM72.9259 21.2C72.1525 21.2 71.5459 20.9867 71.1059 20.56C70.6792 20.12 70.4659 19.4933 70.4659 18.68V12.6H68.4859V11H70.4659V8L72.2259 8.64V11H74.6259V12.6H72.2259V18.56C72.2259 18.9067 72.3259 19.1733 72.5259 19.36C72.7392 19.5467 73.0525 19.64 73.4659 19.64C73.7192 19.64 73.9392 19.6267 74.1259 19.6C74.3259 19.56 74.4592 19.5333 74.5259 19.52V21C74.0059 21.1333 73.4725 21.2 72.9259 21.2ZM81.6496 21.2C80.6496 21.2 79.7429 21.0133 78.9296 20.64C78.1296 20.2667 77.4829 19.7467 76.9896 19.08C76.4963 18.4133 76.2096 17.6467 76.1296 16.78L76.2896 16.56L79.0696 16.14C79.1496 16.9533 79.4363 17.58 79.9296 18.02C80.4363 18.46 81.0629 18.68 81.8096 18.68C82.4763 18.68 83.0163 18.5067 83.4296 18.16C83.8429 17.8133 84.0496 17.3267 84.0496 16.7C84.0496 16.1933 83.9096 15.7933 83.6296 15.5C83.3629 15.1933 83.0163 14.96 82.5896 14.8C82.1629 14.64 81.5763 14.4733 80.8296 14.3C79.5096 13.98 78.4829 13.5267 77.7496 12.94C77.0296 12.3533 76.6696 11.5333 76.6696 10.48C76.6696 9.73333 76.8696 9.08 77.2696 8.52C77.6829 7.96 78.2496 7.53333 78.9696 7.24C79.6896 6.94667 80.5029 6.8 81.4096 6.8C82.8763 6.8 84.0363 7.15333 84.8896 7.86C85.7429 8.55333 86.2563 9.48 86.4296 10.64L86.2696 10.86L83.6896 11.14C83.6096 10.4733 83.3696 9.95333 82.9696 9.58C82.5829 9.20667 82.0496 9.02 81.3696 9.02C80.8363 9.02 80.4029 9.14 80.0696 9.38C79.7363 9.60667 79.5696 9.91333 79.5696 10.3C79.5696 10.6333 79.6896 10.9133 79.9296 11.14C80.1829 11.3533 80.5163 11.5333 80.9296 11.68C81.3563 11.8133 81.9429 11.9667 82.6896 12.14C84.0363 12.46 85.0963 12.9467 85.8696 13.6C86.6563 14.2533 87.0496 15.22 87.0496 16.5C87.0496 17.46 86.8096 18.3 86.3296 19.02C85.8629 19.7267 85.2163 20.2667 84.3896 20.64C83.5763 21.0133 82.6629 21.2 81.6496 21.2ZM92.8357 21.2C91.9024 21.2 91.1624 20.9467 90.6157 20.44C90.069 19.9333 89.7957 19.1733 89.7957 18.16V13.32H88.0157V11H89.7957V8.14H90.1557L92.5757 8.98V11H94.6957V13.32H92.5757V17.92C92.5757 18.24 92.669 18.4867 92.8557 18.66C93.0424 18.8333 93.309 18.92 93.6557 18.92C93.869 18.92 94.1357 18.8733 94.4557 18.78L94.5957 18.86V21C94.0224 21.1333 93.4357 21.2 92.8357 21.2ZM99.3677 21.2C98.7944 21.2 98.2611 21.08 97.7677 20.84C97.2877 20.5867 96.9011 20.2333 96.6077 19.78C96.3277 19.3133 96.1877 18.7733 96.1877 18.16C96.1877 17.2533 96.5011 16.5267 97.1277 15.98C97.7544 15.42 98.6144 15.0867 99.7077 14.98L102.408 14.7V14.26C102.408 13.8067 102.261 13.4533 101.968 13.2C101.688 12.9467 101.288 12.82 100.768 12.82C100.301 12.82 99.9277 12.9467 99.6477 13.2C99.3677 13.44 99.1944 13.7733 99.1277 14.2L96.7677 14L96.6677 13.88C96.8677 12.88 97.3411 12.12 98.0877 11.6C98.8344 11.0667 99.7411 10.8 100.808 10.8C102.074 10.8 103.101 11.12 103.888 11.76C104.674 12.3867 105.068 13.2733 105.068 14.42V18C105.068 18.3067 105.128 18.54 105.248 18.7C105.381 18.86 105.561 18.94 105.788 18.94C105.934 18.94 106.061 18.92 106.168 18.88L106.268 19V20.92C105.868 21.0533 105.408 21.12 104.888 21.12C103.808 21.12 103.061 20.6667 102.648 19.76H102.508C102.041 20.24 101.561 20.6 101.068 20.84C100.574 21.08 100.008 21.2 99.3677 21.2ZM100.008 19.08C100.488 19.08 100.908 18.96 101.268 18.72C101.641 18.48 102.021 18.1133 102.408 17.62V16.46L100.208 16.74C99.7411 16.7933 99.3811 16.9333 99.1277 17.16C98.8877 17.3867 98.7677 17.6667 98.7677 18C98.7677 18.3333 98.8811 18.6 99.1077 18.8C99.3477 18.9867 99.6477 19.08 100.008 19.08ZM108.074 11H110.874V12.2C111.234 11.7733 111.647 11.4333 112.114 11.18C112.581 10.9267 113.094 10.8 113.654 10.8C114.054 10.8 114.374 10.8533 114.614 10.96L114.254 13.16L114.114 13.3C113.847 13.2333 113.621 13.2 113.434 13.2C112.887 13.2 112.394 13.3533 111.954 13.66C111.514 13.9667 111.154 14.4133 110.874 15V21H108.074V11ZM120.414 21.2C119.48 21.2 118.74 20.9467 118.194 20.44C117.647 19.9333 117.374 19.1733 117.374 18.16V13.32H115.594V11H117.374V8.14H117.734L120.154 8.98V11H122.274V13.32H120.154V17.92C120.154 18.24 120.247 18.4867 120.434 18.66C120.62 18.8333 120.887 18.92 121.234 18.92C121.447 18.92 121.714 18.8733 122.034 18.78L122.174 18.86V21C121.6 21.1333 121.014 21.2 120.414 21.2ZM128.631 21.2C127.645 21.2 126.758 20.9867 125.971 20.56C125.198 20.12 124.591 19.5067 124.151 18.72C123.711 17.9333 123.491 17.0267 123.491 16C123.491 14.9867 123.725 14.0867 124.191 13.3C124.671 12.5133 125.305 11.9 126.091 11.46C126.878 11.02 127.725 10.8 128.631 10.8C129.618 10.8 130.491 11.0067 131.251 11.42C132.011 11.8333 132.598 12.4267 133.011 13.2C133.438 13.9733 133.651 14.8867 133.651 15.94V16.68H126.131C126.198 17.3733 126.458 17.9267 126.911 18.34C127.378 18.74 127.971 18.94 128.691 18.94C129.838 18.94 130.598 18.4267 130.971 17.4L133.311 17.64L133.451 17.88C133.078 18.9867 132.478 19.82 131.651 20.38C130.838 20.9267 129.831 21.2 128.631 21.2ZM131.011 14.88C130.945 14.28 130.691 13.8 130.251 13.44C129.811 13.08 129.265 12.9 128.611 12.9C128.025 12.9 127.505 13.08 127.051 13.44C126.611 13.8 126.331 14.28 126.211 14.88H131.011ZM139.815 21.2C139.028 21.2 138.268 21.0067 137.535 20.62C136.802 20.22 136.195 19.6267 135.715 18.84C135.248 18.0533 135.015 17.1067 135.015 16C135.015 14.88 135.248 13.9333 135.715 13.16C136.182 12.3733 136.795 11.7867 137.555 11.4C138.315 11 139.122 10.8 139.975 10.8C141.095 10.8 142.075 11.14 142.915 11.82V6.4H145.715V21H142.915V19.96C142.142 20.7867 141.108 21.2 139.815 21.2ZM140.475 18.88C141.168 18.88 141.748 18.6667 142.215 18.24C142.682 17.8 142.915 17.2133 142.915 16.48V15.52C142.915 14.8 142.675 14.22 142.195 13.78C141.728 13.34 141.148 13.12 140.455 13.12C139.682 13.12 139.055 13.3733 138.575 13.88C138.095 14.3867 137.855 15.0933 137.855 16C137.855 16.9067 138.095 17.6133 138.575 18.12C139.068 18.6267 139.702 18.88 140.475 18.88Z" fill="#111111"/>
</svg>
