<svg width="189" height="40" viewBox="0 0 189 40" fill="none" xmlns="http://www.w3.org/2000/svg">
<path fill-rule="evenodd" clip-rule="evenodd" d="M0 9.06077C10.8969 9.06077 27.0242 8.61878 40.3183 0L42.4977 2.87293C36.4605 6.91773 29.5168 9.34024 22.2996 10.7557C22.6012 11.3885 23.8221 13.9002 24.8708 15.3391C26.3238 14.4404 28.0309 13.9227 29.8574 13.9227C35.1534 13.9227 39.4466 18.2761 39.4466 23.6464C39.4466 29.0167 35.1534 33.3702 29.8574 33.3702C24.5614 33.3702 20.2681 29.0167 20.2681 23.6464C20.2681 21.5289 20.9356 19.5695 22.0689 17.9727C21.2285 17.0746 20.3809 16.0412 20.2681 15.4696C19.8499 17.4489 18.2888 19.6544 17.1229 21.0236C17.5207 21.1542 17.9072 21.3105 18.2803 21.4905C18.1545 22.1898 18.0888 22.9103 18.0888 23.6464C18.0888 27.7385 20.12 31.3496 23.2158 33.4995C21.9044 37.2856 18.3478 40 14.1659 40C8.86992 40 4.57668 35.6465 4.57668 30.2762C4.57668 25.2413 8.35042 21.1002 13.1862 20.6026C16.8968 16.9858 18.0407 13.4344 18.1813 11.4546C12.1057 12.3343 5.92349 12.5967 0 12.5967V9.06077ZM32.4953 18.4272C31.6986 17.8971 30.8955 17.6796 30.5112 17.6796V16.3536C31.2165 16.3536 32.2659 16.6886 33.2127 17.3186C34.176 17.9596 35.1203 18.9637 35.5007 20.378L34.2392 20.7269C33.9657 19.7103 33.2755 18.9464 32.4953 18.4272ZM9.97835 25.8816C10.0308 25.7485 10.186 25.5288 10.4865 25.2729C10.776 25.0263 11.1586 24.7819 11.5983 24.5838C12.4892 24.1822 13.5215 24.01 14.4139 24.2814L14.7897 23.0114C13.5027 22.6199 12.1377 22.8896 11.0672 23.3721C10.5261 23.6159 10.037 23.924 9.64545 24.2576C9.2649 24.5817 8.92969 24.9697 8.76425 25.3891L9.97835 25.8816Z" fill="#2895F0"/>
<path d="M61.9035 30C60.1917 30 58.6152 29.5946 57.1737 28.7838C55.7503 27.955 54.6152 26.8018 53.7683 25.3243C52.9215 23.8468 52.498 22.1622 52.498 20.2703C52.498 18.3784 52.9215 16.6937 53.7683 15.2162C54.6152 13.7387 55.7503 12.5946 57.1737 11.7838C58.6152 10.955 60.1917 10.5405 61.9035 10.5405C63.3449 10.5405 64.6512 10.8018 65.8224 11.3243C66.9935 11.8468 67.9485 12.5766 68.6872 13.5135C69.444 14.4504 69.9395 15.5315 70.1737 16.7568H67.5791C67.1827 15.4955 66.5071 14.5405 65.5521 13.8919C64.5971 13.2432 63.3719 12.9189 61.8764 12.9189C60.5251 12.9189 59.3359 13.2342 58.3089 13.8649C57.2998 14.4955 56.5161 15.3694 55.9575 16.4865C55.417 17.6036 55.1467 18.8649 55.1467 20.2703C55.1467 21.6757 55.417 22.9369 55.9575 24.0541C56.5161 25.1712 57.2998 26.045 58.3089 26.6757C59.3359 27.3063 60.5251 27.6216 61.8764 27.6216C63.6782 27.6216 65.0926 27.1261 66.1197 26.1351C67.1467 25.1261 67.7323 23.7297 67.8764 21.9459H60.3359V19.5676H70.498V21.1081C70.498 22.8198 70.1467 24.3514 69.444 25.7027C68.7413 27.036 67.7413 28.0901 66.444 28.8649C65.1467 29.6216 63.6332 30 61.9035 30Z" fill="white"/>
<path d="M79.5149 30C78.1636 30 76.9924 29.7117 76.0014 29.1351C75.0104 28.5405 74.2447 27.7207 73.7041 26.6757C73.1816 25.6126 72.9203 24.3784 72.9203 22.973C72.9203 21.6036 73.2176 20.3874 73.8122 19.3243C74.4068 18.2613 75.2086 17.4324 76.2176 16.8378C77.2266 16.2432 78.3257 15.9459 79.5149 15.9459C80.7221 15.9459 81.8032 16.2252 82.7582 16.7838C83.7311 17.3243 84.4879 18.1081 85.0284 19.1351C85.587 20.1622 85.8663 21.3874 85.8663 22.8108V23.7297H75.3257C75.3618 25.009 75.7582 26.018 76.5149 26.7568C77.2897 27.4775 78.2987 27.8378 79.542 27.8378C80.569 27.8378 81.4248 27.5946 82.1095 27.1081C82.7942 26.6036 83.2627 25.9369 83.5149 25.1081H85.7312C85.3528 26.6396 84.6321 27.8378 83.569 28.7027C82.5059 29.5676 81.1546 30 79.5149 30ZM83.623 21.6757C83.533 20.5405 83.1005 19.6667 82.3257 19.0541C81.569 18.4234 80.6321 18.1081 79.5149 18.1081C78.4339 18.1081 77.5149 18.4234 76.7582 19.0541C76.0014 19.6847 75.533 20.5586 75.3528 21.6757H83.623Z" fill="white"/>
<path d="M93.11 30C92.0649 30 91.2451 29.7117 90.6505 29.1351C90.0739 28.5405 89.7856 27.6937 89.7856 26.5946V18.3784H87.11V16.2162H89.7856V12.1622L92.164 13.027V16.2162H95.4072V18.3784H92.164V26.4324C92.164 26.9009 92.2991 27.2613 92.5694 27.5135C92.8577 27.7658 93.2811 27.8919 93.8397 27.8919C94.182 27.8919 94.4793 27.8739 94.7316 27.8378C95.0018 27.7838 95.182 27.7477 95.2721 27.7297V29.7297C94.5694 29.9099 93.8487 30 93.11 30Z" fill="white"/>
<path d="M104.791 30C103.511 30 102.331 29.7477 101.25 29.2432C100.169 28.7387 99.2952 28.027 98.6285 27.1081C97.9619 26.1892 97.5835 25.1261 97.4934 23.9189L97.6015 23.7838L100.764 23.4865C100.872 24.6216 101.304 25.5045 102.061 26.1351C102.836 26.7658 103.782 27.0811 104.899 27.0811C105.944 27.0811 106.8 26.8198 107.466 26.2973C108.133 25.7568 108.466 25 108.466 24.027C108.466 23.018 108.106 22.2613 107.385 21.7568C106.665 21.2523 105.484 20.8198 103.845 20.4595C102.043 20.045 100.647 19.4504 99.6556 18.6757C98.6826 17.8829 98.1961 16.7838 98.1961 15.3784C98.1961 14.4054 98.4664 13.5586 99.0069 12.8378C99.5474 12.0991 100.286 11.5315 101.223 11.1351C102.16 10.7387 103.214 10.5405 104.385 10.5405C106.313 10.5405 107.845 11.018 108.98 11.973C110.133 12.9279 110.8 14.2162 110.98 15.8378L110.845 16L107.872 16.1622C107.746 15.2072 107.385 14.4865 106.791 14C106.196 13.4955 105.385 13.2432 104.358 13.2432C103.493 13.2432 102.791 13.4234 102.25 13.7838C101.71 14.1441 101.439 14.6126 101.439 15.1892C101.439 15.9279 101.782 16.4865 102.466 16.8649C103.169 17.2432 104.34 17.6306 105.98 18.027C107.818 18.4595 109.25 19.1261 110.277 20.027C111.304 20.9279 111.818 22.1982 111.818 23.8378C111.818 25.0811 111.511 26.1712 110.899 27.1081C110.286 28.027 109.439 28.7387 108.358 29.2432C107.295 29.7477 106.106 30 104.791 30Z" fill="white"/>
<path d="M119.482 30C118.329 30 117.419 29.6847 116.752 29.0541C116.086 28.4054 115.752 27.4685 115.752 26.2432V18.8649H113.239V16.2162H115.752V12.2432H115.996L118.861 13.2432V16.2162H121.888V18.8649H118.861V25.973C118.861 26.4234 118.987 26.7748 119.239 27.027C119.509 27.2613 119.897 27.3784 120.401 27.3784C120.816 27.3784 121.239 27.3243 121.671 27.2162L121.752 27.2703V29.7297C121.014 29.9099 120.257 30 119.482 30Z" fill="white"/>
<path d="M128.263 30C127.038 30 126.011 29.6396 125.182 28.9189C124.371 28.1802 123.966 27.1982 123.966 25.973C123.966 24.7297 124.389 23.7477 125.236 23.027C126.101 22.2883 127.236 21.8468 128.641 21.7027L132.56 21.2973V20.5676C132.56 19.8649 132.326 19.3333 131.857 18.973C131.389 18.5946 130.758 18.4054 129.966 18.4054C129.263 18.4054 128.686 18.5766 128.236 18.9189C127.803 19.2613 127.524 19.7658 127.398 20.4324L124.722 20.2973L124.587 20.1892C124.839 18.8198 125.47 17.7748 126.479 17.0541C127.488 16.3153 128.686 15.9459 130.074 15.9459C131.713 15.9459 133.038 16.3604 134.047 17.1892C135.056 18 135.56 19.1171 135.56 20.5405V26.0811C135.56 26.982 135.92 27.4324 136.641 27.4324C136.803 27.4324 137.002 27.4054 137.236 27.3514L137.317 27.4054V29.6216C136.758 29.8018 136.191 29.8919 135.614 29.8919C134.966 29.8919 134.38 29.7387 133.857 29.4324C133.353 29.1261 132.984 28.6216 132.749 27.9189H132.668C132.092 28.5495 131.425 29.0541 130.668 29.4324C129.929 29.8108 129.128 30 128.263 30ZM128.83 27.4865C129.551 27.4865 130.209 27.3153 130.803 26.973C131.398 26.6126 131.984 26.0991 132.56 25.4324V23.4595L129.047 23.8649C128.344 23.955 127.812 24.1802 127.452 24.5405C127.092 24.8829 126.911 25.3063 126.911 25.8108C126.911 26.3514 127.092 26.7658 127.452 27.0541C127.812 27.3423 128.272 27.4865 128.83 27.4865Z" fill="white"/>
<path d="M139.79 16.2162H142.872V17.8919C144.007 16.5946 145.304 15.9459 146.763 15.9459C147.25 15.9459 147.637 16.018 147.926 16.1622L147.52 18.6486L147.412 18.7297C147.196 18.6757 146.899 18.6486 146.52 18.6486C145.763 18.6486 145.07 18.8649 144.439 19.2973C143.808 19.7297 143.286 20.3514 142.872 21.1622V29.7297H139.79V16.2162Z" fill="white"/>
<path d="M155.536 30C154.383 30 153.473 29.6847 152.806 29.0541C152.139 28.4054 151.806 27.4685 151.806 26.2432V18.8649H149.293V16.2162H151.806V12.2432H152.049L154.914 13.2432V16.2162H157.941V18.8649H154.914V25.973C154.914 26.4234 155.04 26.7748 155.293 27.027C155.563 27.2613 155.95 27.3784 156.455 27.3784C156.869 27.3784 157.293 27.3243 157.725 27.2162L157.806 27.2703V29.7297C157.067 29.9099 156.311 30 155.536 30Z" fill="white"/>
<path d="M166.405 30C165.072 30 163.892 29.7117 162.865 29.1351C161.838 28.5405 161.045 27.7117 160.486 26.6486C159.928 25.5856 159.648 24.3604 159.648 22.973C159.648 21.6036 159.955 20.3874 160.567 19.3243C161.198 18.2613 162.027 17.4324 163.054 16.8378C164.081 16.2432 165.198 15.9459 166.405 15.9459C167.684 15.9459 168.82 16.2252 169.811 16.7838C170.82 17.3243 171.603 18.1171 172.162 19.1622C172.72 20.2072 173 21.4414 173 22.8649V23.8108H162.648C162.72 24.9099 163.099 25.7838 163.784 26.4324C164.486 27.0631 165.378 27.3784 166.459 27.3784C167.378 27.3784 168.135 27.1712 168.729 26.7568C169.324 26.3243 169.747 25.7387 170 25L172.702 25.1622L172.784 25.2973C172.351 26.8108 171.585 27.973 170.486 28.7838C169.405 29.5946 168.045 30 166.405 30ZM170.081 21.5676C169.991 20.5946 169.603 19.8378 168.919 19.2973C168.252 18.7387 167.414 18.4595 166.405 18.4595C165.468 18.4595 164.657 18.7387 163.973 19.2973C163.306 19.8378 162.883 20.5946 162.702 21.5676H170.081Z" fill="white"/>
<path d="M181.255 30C180.174 30 179.147 29.7207 178.174 29.1622C177.201 28.6036 176.408 27.7928 175.796 26.7297C175.201 25.6667 174.904 24.4144 174.904 22.973C174.904 21.5135 175.192 20.2523 175.769 19.1892C176.345 18.1261 177.12 17.3243 178.093 16.7838C179.084 16.2252 180.165 15.9459 181.336 15.9459C182.165 15.9459 182.931 16.0811 183.634 16.3514C184.354 16.6216 184.976 17 185.498 17.4865V10H188.58V29.7297H185.498V28.2703C184.417 29.4234 183.003 30 181.255 30ZM181.877 27.3514C182.868 27.3514 183.715 27.027 184.417 26.3784C185.138 25.7297 185.498 24.9279 185.498 23.973V22C185.498 21.045 185.138 20.2432 184.417 19.5946C183.715 18.9279 182.859 18.5946 181.85 18.5946C180.733 18.5946 179.814 18.973 179.093 19.7297C178.372 20.4685 178.012 21.5495 178.012 22.973C178.012 24.3964 178.372 25.4865 179.093 26.2432C179.814 26.982 180.742 27.3514 181.877 27.3514Z" fill="white"/>
</svg>
